<svg xmlns="http://www.w3.org/2000/svg" enable-background="new 0 0 24 24" viewBox="0 0 24 24" id="Ethereum"><path d="M12.25,16.55c-0.138,0-0.277-0.038-0.398-0.115l-6.5-4.078c-0.345-0.216-0.454-0.667-0.247-1.018l6.5-10.972C11.74,0.14,11.985,0,12.25,0l0,0c0.265,0,0.51,0.14,0.646,0.368l6.496,10.972c0.207,0.35,0.098,0.801-0.247,1.018l-6.496,4.078C12.527,16.512,12.389,16.55,12.25,16.55z M6.768,11.475l5.482,3.439l5.478-3.439L12.25,2.222L6.768,11.475z" fill="#7c3aed" class="color000000 svgShape"></path><path d="M12.25,24c-0.241,0-0.467-0.116-0.608-0.311l-6.5-8.996c-0.21-0.291-0.185-0.69,0.061-0.952c0.245-0.262,0.641-0.314,0.946-0.123l6.102,3.828l6.102-3.828c0.305-0.191,0.701-0.139,0.946,0.123c0.246,0.262,0.271,0.661,0.061,0.952l-6.5,8.996C12.717,23.884,12.491,24,12.25,24z M8.613,16.936l3.637,5.033l3.637-5.033l-3.239,2.032c-0.243,0.153-0.554,0.153-0.797,0L8.613,16.936z" fill="#7c3aed" class="color000000 svgShape"></path></svg>