<?xml version="1.0" standalone="no"?>
<!DOCTYPE svg PUBLIC "-//W3C//DTD SVG 20010904//EN"
 "http://www.w3.org/TR/2001/REC-SVG-20010904/DTD/svg10.dtd">
<svg version="1.0" xmlns="http://www.w3.org/2000/svg"
 width="500.000000pt" height="500.000000pt" viewBox="0 0 500.000000 500.000000"
 preserveAspectRatio="xMidYMid meet">

<g transform="translate(0.000000,500.000000) scale(0.100000,-0.100000)"
fill="#4b556380" stroke="none">
<path d="M2380 4779 c-466 -28 -920 -204 -1290 -498 -79 -63 -302 -283 -319
-314 -11 -21 15 -69 300 -552 512 -870 539 -915 539 -924 0 -15 -455 -784
-465 -788 -8 -2 -380 613 -752 1244 -43 73 -81 133 -84 133 -6 0 -34 -134 -60
-290 -8 -47 -13 -162 -13 -305 1 -190 5 -252 22 -353 112 -637 416 -1125 943
-1515 l35 -27 319 543 c175 298 360 612 410 697 420 712 389 654 374 682 -15
28 -747 1274 -766 1304 -13 21 -10 24 54 67 97 64 242 135 356 173 414 140
858 116 1247 -67 122 -58 172 -89 296 -180 85 -64 314 -289 314 -310 0 -5
-260 -10 -659 -11 l-658 -3 186 -317 186 -318 949 0 948 0 -7 48 c-9 62 -39
185 -75 298 -157 507 -530 976 -1005 1261 -301 181 -667 298 -991 318 -54 3
-124 7 -154 9 -30 2 -111 0 -180 -5z"/>
<path d="M2708 1812 l-187 -317 659 -3 c363 -1 660 -6 660 -10 0 -15 -180
-200 -258 -265 -205 -171 -450 -289 -721 -348 -138 -30 -434 -37 -590 -15 -93
14 -116 15 -123 4 -34 -52 -318 -540 -318 -547 0 -15 228 -72 386 -96 97 -15
314 -21 444 -14 319 18 598 93 884 236 565 282 982 767 1171 1363 31 95 75
278 75 308 l0 22 -947 0 -948 0 -187 -318z"/>
</g>
</svg>
